# xmcd
#
# Track frame offsets:
#	150
#	14432
#	29805
#	49150
#	60930
#	75092
#	86647
#	101305
#	115662
#	129872
#
# Disc length: 1936 seconds
#
# Revision: 0
# Processed by: cddbd v1.5.1PL0 Copyright (c) Steve Scherf et al.
# Submitted via: dBpowerAMP V4.0
#
DISCID=6b078e0a
DTITLE=Patty Loveless - Greatest Hits (MCA)
DYEAR=1993
DGENRE=Country
TTITLE0=If My Heart Had Windows
TTITLE1=Blue Side Of Town
TTITLE2=Don't Toss Us Away
TTITLE3=Timber I'm Falling In Love  with Vince Gill
TTITLE4=The Lonely Side Of Love
TTITLE5=Chains  with Vince Gill
TTITLE6=On Down The Line
TTITLE7=I'm That Kind Of Girl
TTITLE8=Hurt Me Bad ( In A Real Good Way )
TTITLE9=Jealous Bone
EXTD=
EXTT0=
EXTT1=
EXTT2=
EXTT3=
EXTT4=
EXTT5=
EXTT6=
EXTT7=
EXTT8=
EXTT9=
PLAYORDER=
